<svg width="1600" height="900" viewBox="0 0 1600 900" fill="none" xmlns="http://www.w3.org/2000/svg">
  <defs>
    <linearGradient id="bg2" x1="0" y1="0" x2="1" y2="1">
      <stop offset="0%" stop-color="#111827"/>
      <stop offset="50%" stop-color="#0f172a"/>
      <stop offset="100%" stop-color="#020617"/>
    </linearGradient>
    <linearGradient id="shine" x1="0" y1="0" x2="1" y2="0">
      <stop offset="0%" stop-color="rgba(6,182,212,0)"/>
      <stop offset="50%" stop-color="rgba(103,232,249,0.8)"/>
      <stop offset="100%" stop-color="rgba(6,182,212,0)"/>
    </linearGradient>
  </defs>
  <rect width="1600" height="900" fill="url(#bg2)"/>
  <g stroke="#67e8f9" stroke-width="2" opacity="0.55">
    <path d="M80 210C380 150 760 150 1060 230"/>
    <path d="M120 290C420 235 820 240 1200 320"/>
    <path d="M180 370C500 330 900 340 1340 400"/>
    <path d="M200 450C520 430 900 440 1380 500"/>
    <path d="M220 530C560 520 930 535 1410 600"/>
  </g>
  <rect x="120" y="120" width="1360" height="90" fill="url(#shine)" opacity="0.5"/>
  <rect x="80" y="330" width="1460" height="80" fill="url(#shine)" opacity="0.4"/>
  <rect x="140" y="560" width="1320" height="70" fill="url(#shine)" opacity="0.42"/>
  <text x="110" y="840" fill="#e0f2fe" font-size="54" font-family="Arial" letter-spacing="8">MIRROR FINISH / LAB-CALIBRATED GLOSS</text>
</svg>
