<svg width="1600" height="900" viewBox="0 0 1600 900" fill="none" xmlns="http://www.w3.org/2000/svg">
  <defs>
    <linearGradient id="bg" x1="0" y1="0" x2="1" y2="1">
      <stop offset="0%" stop-color="#1e293b"/>
      <stop offset="100%" stop-color="#0b1120"/>
    </linearGradient>
  </defs>
  <rect width="1600" height="900" fill="url(#bg)"/>
  <g opacity="0.55" stroke="#7c879f" stroke-width="2">
    <path d="M120 200C360 120 620 140 870 220"/>
    <path d="M180 280C450 210 820 225 1120 300"/>
    <path d="M220 350C560 290 950 290 1310 350"/>
    <path d="M180 420C480 380 930 370 1360 420"/>
    <path d="M240 500C580 470 970 465 1380 510"/>
    <path d="M220 560C560 545 940 555 1320 620"/>
  </g>
  <g stroke="#94a3b8" stroke-width="1.5" opacity="0.35">
    <line x1="120" y1="160" x2="1480" y2="720"/>
    <line x1="140" y1="720" x2="1460" y2="200"/>
  </g>
  <text x="96" y="840" fill="#cbd5e1" font-size="54" font-family="Arial" letter-spacing="8">SCRATCHED / OXIDIZED SURFACE</text>
</svg>
